Artist: Kinky
Album: Kinky
Release Date: Mar 26, 2002
Label: Nettwerk
 
 1 Más		           4:21
 2 Soun Tha Mi Primer Amor 3:10
 3 Great Spot		   3:20
 4 San Antonio	 	   3:31
 5 Field-Goal		   1:45
 6 Mirando de Lado	   4:44
 7 Sol (Batucada)	   4:23
 8 Ejercicio No. 16	   4:21
 9 Sambita		   3:58
10 Cornman	           3:31
11 Anorexic Freaks         3:40
12 Tonos Rosa		   3:34
13 Noche de Toxinas	   4:17

-----------------------------------------------------------------------------------

Exact Audio Copy V0.99 prebeta 5 from 4. May 2009

EAC extraction logfile from 11. March 2010, 12:07

Kinky / Kinky

Used drive  : MATSHITADVD-RAM UJ-851S   Adapter: 0  ID: 0

Read mode               : Secure
Utilize accurate stream : Yes
Defeat audio cache      : No
Make use of C2 pointers : No

Combined read/write offset correction       : 0
Overread into Lead-In and Lead-Out          : No
Fill up missing offset samples with silence : Yes
Delete leading and trailing silent blocks   : No
Null samples used in CRC calculations       : No
Used interface                              : Native Win32 interface for Win NT & 2000
Gap handling                                : Not detected, thus appended to previous track

Used output format              : User Defined Encoder
Selected bitrate                : 768 kBit/s
Quality                         : High
Add ID3 tag                     : No
Command line compressor         : C:Program Files (x86)Exact Audio CopyFLACFLAC.EXE
Additional command line options : -6 -V -T "ARTIST=%a" -T "TITLE=%t" -T "ALBUM=%g" -T "DATE=%y" -T "TRACKNUMBER=%n" -T "GENRE=%m" -T "COMMENT=%e" %s -o %d


TOC of the extracted CD

     Track |   Start  |  Length  | Start sector | End sector 
    ---------------------------------------------------------
        1  |  0:00.00 |  4:21.20 |         0    |    19594   
        2  |  4:21.20 |  3:10.70 |     19595    |    33914   
        3  |  7:32.15 |  3:20.23 |     33915    |    48937   
        4  | 10:52.38 |  3:30.62 |     48938    |    64749   
        5  | 14:23.25 |  1:45.25 |     64750    |    72649   
        6  | 16:08.50 |  4:44.30 |     72650    |    93979   
        7  | 20:53.05 |  4:23.55 |     93980    |   113759   
        8  | 25:16.60 |  4:22.08 |    113760    |   133417   
        9  | 29:38.68 |  3:58.12 |    133418    |   151279   
       10  | 33:37.05 |  3:31.68 |    151280    |   167172   
       11  | 37:08.73 |  3:40.17 |    167173    |   183689   
       12  | 40:49.15 |  3:34.43 |    183690    |   199782   
       13  | 44:23.58 |  4:16.50 |    199783    |   219032   


Track  1

     Filename C:UsersDiegoDesktopMás.wav

     Peak level 98.4 %
     Track quality 100.0 %
     Copy CRC F4C7603C
     Copy OK

Track  2

     Filename C:UsersDiegoDesktopSoun Tha Mi Primer Amor.wav

     Peak level 98.4 %
     Track quality 99.9 %
     Copy CRC 6F8327C6
     Copy OK

Track  3

     Filename C:UsersDiegoDesktopGreat Spot.wav

     Peak level 98.4 %
     Track quality 100.0 %
     Copy CRC 15883997
     Copy OK

Track  4

     Filename C:UsersDiegoDesktopSan Antonio.wav

     Peak level 98.4 %
     Track quality 100.0 %
     Copy CRC 6FD71148
     Copy OK

Track  5

     Filename C:UsersDiegoDesktopField-Goal.wav

     Peak level 98.4 %
     Track quality 100.0 %
     Copy CRC F1C1366E
     Copy OK

Track  6

     Filename C:UsersDiegoDesktopMirando de Lado.wav

     Peak level 98.4 %
     Track quality 100.0 %
     Copy CRC 95F74C26
     Copy OK

Track  7

     Filename C:UsersDiegoDesktopSol (Batucada).wav

     Peak level 98.4 %
     Track quality 100.0 %
     Copy CRC 7A0BAD1E
     Copy OK

Track  8

     Filename C:UsersDiegoDesktopEjercicio No. 16.wav

     Peak level 98.4 %
     Track quality 100.0 %
     Copy CRC C5029AAB
     Copy OK

Track  9

     Filename C:UsersDiegoDesktopSambita.wav

     Peak level 98.4 %
     Track quality 100.0 %
     Copy CRC 49CAE989
     Copy OK

Track 10

     Filename C:UsersDiegoDesktopCornman.wav

     Peak level 98.4 %
     Track quality 100.0 %
     Copy CRC 0D6B4B65
     Copy OK

Track 11

     Filename C:UsersDiegoDesktopAnorexic Freaks.wav

     Peak level 98.4 %
     Track quality 100.0 %
     Copy CRC E3929945
     Copy OK

Track 12

     Filename C:UsersDiegoDesktopTonos Rosa.wav

     Peak level 98.4 %
     Track quality 100.0 %
     Copy CRC CD1D51F8
     Copy OK

Track 13

     Filename C:UsersDiegoDesktopNoche de Tuxedos.wav

     Peak level 98.4 %
     Track quality 100.0 %
     Copy CRC 6F94CA8A
     Copy OK

No errors occurred

End of status report
